<svg width="1000" height="1000" viewBox="0 0 1000 1000" fill="none" xmlns="http://www.w3.org/2000/svg">
    <mask id="path-1-inside-1_220_2" fill="white">
        <path fill-rule="evenodd" clip-rule="evenodd"
            d="M387.879 360.712C390.996 324.81 395.279 290.815 400.56 259.308C426.573 277.853 453.64 298.862 481.23 322.045C468.018 333.586 454.736 345.579 441.437 357.993C423.255 358.619 405.382 359.531 387.879 360.712ZM413.986 384.199C404.52 384.69 395.157 385.26 385.907 385.907C385.26 395.157 384.69 404.52 384.199 413.986C389.077 408.987 394.012 403.992 399.002 399.002C403.992 394.012 408.987 389.077 413.986 384.199ZM382.683 451.663C393.688 440.006 405.027 428.332 416.68 416.68C428.332 405.027 440.006 393.688 451.663 382.682C467.689 382.221 483.962 381.985 500.44 381.985C516.919 381.985 533.192 382.221 549.217 382.682C560.875 393.688 572.548 405.027 584.201 416.68C595.853 428.332 607.193 440.007 618.199 451.664C618.66 467.689 618.896 483.962 618.896 500.44C618.896 516.919 618.66 533.192 618.199 549.217C607.193 560.875 595.854 572.549 584.201 584.201C572.549 595.854 560.875 607.193 549.217 618.199C533.192 618.66 516.919 618.896 500.44 618.896C483.961 618.896 467.688 618.66 451.663 618.199C440.005 607.193 428.331 595.854 416.679 584.201C405.027 572.549 393.688 560.876 382.683 549.218C382.222 533.193 381.985 516.92 381.985 500.44C381.985 483.962 382.222 467.689 382.683 451.663ZM357.993 441.437C358.619 423.255 359.531 405.382 360.712 387.879C324.81 390.996 290.815 395.279 259.307 400.56C277.852 426.573 298.861 453.64 322.044 481.231C333.586 468.019 345.579 454.736 357.993 441.437ZM338.465 500.441C344.549 493.443 350.766 486.419 357.112 479.378C357.028 486.362 356.985 493.384 356.985 500.44C356.985 507.497 357.028 514.52 357.112 521.504C350.766 514.463 344.549 507.439 338.465 500.441ZM305.539 500.441C278.063 467.921 253.452 435.992 232.182 405.471C210.077 409.783 189.415 414.611 170.427 419.885C128.367 431.568 95.2355 445.253 72.9099 459.915C50.0755 474.911 41.5 488.87 41.5 500.441C41.5 512.012 50.0755 525.97 72.9099 540.966C95.2355 555.628 128.367 569.313 170.427 580.996C189.415 586.271 210.077 591.098 232.182 595.411C253.452 564.889 278.063 532.961 305.539 500.441ZM259.307 600.321C277.853 574.308 298.862 547.242 322.044 519.651C333.586 532.863 345.579 546.146 357.993 559.445C358.619 577.627 359.531 595.499 360.712 613.002C324.81 609.885 290.815 605.602 259.307 600.321ZM216.974 617.856C198.137 613.967 180.343 609.697 163.736 605.084C120.482 593.069 84.5732 578.535 59.1863 561.863C34.3084 545.524 16.5 525.032 16.5 500.441C16.5 475.849 34.3084 455.357 59.1863 439.019C84.5732 422.346 120.482 407.812 163.736 395.797C180.342 391.184 198.136 386.914 216.974 383.025C206.403 366.955 196.84 351.353 188.36 336.349C166.271 297.268 151.156 261.599 144.994 231.859C138.956 202.714 140.853 175.632 158.242 158.243C175.631 140.854 202.714 138.956 231.858 144.995C261.598 151.157 297.267 166.271 336.348 188.36C351.353 196.841 366.954 206.404 383.025 216.975C386.914 198.137 391.184 180.343 395.797 163.736C407.812 120.482 422.346 84.5732 439.019 59.1863C455.357 34.3084 475.849 16.5 500.441 16.5C525.032 16.5 545.524 34.3084 561.863 59.1863C578.535 84.5732 593.069 120.482 605.084 163.736C609.697 180.343 613.967 198.136 617.856 216.974C633.927 206.404 649.528 196.841 664.532 188.36C703.613 166.271 739.282 151.157 769.022 144.995C798.167 138.956 825.249 140.854 842.638 158.243C860.027 175.632 861.925 202.714 855.886 231.859C849.724 261.599 834.61 297.268 812.521 336.349C804.04 351.353 794.477 366.955 783.906 383.025C802.744 386.914 820.538 391.184 837.145 395.797C880.398 407.812 916.308 422.346 941.695 439.019C966.573 455.357 984.381 475.849 984.381 500.441C984.381 525.032 966.573 545.524 941.695 561.863C916.308 578.535 880.398 593.069 837.145 605.084C820.538 609.697 802.744 613.967 783.906 617.856C794.476 633.926 804.039 649.528 812.52 664.532C834.609 703.613 849.724 739.282 855.885 769.022C861.924 798.167 860.026 825.249 842.637 842.638C825.249 860.027 798.166 861.925 769.022 855.886C739.281 849.724 703.612 834.61 664.531 812.521C649.527 804.04 633.926 794.477 617.856 783.907C613.967 802.745 609.697 820.539 605.084 837.145C593.069 880.398 578.535 916.308 561.863 941.695C545.524 966.573 525.032 984.381 500.441 984.381C475.849 984.381 455.357 966.573 439.019 941.695C422.346 916.308 407.812 880.398 395.797 837.145C391.184 820.538 386.914 802.744 383.025 783.906C366.955 794.477 351.353 804.04 336.349 812.521C297.268 834.61 261.599 849.724 231.859 855.886C202.715 861.925 175.632 860.027 158.243 842.638C140.854 825.249 138.956 798.167 144.995 769.022C151.157 739.282 166.271 703.613 188.361 664.532C196.841 649.528 206.404 633.926 216.974 617.856ZM377.907 757.282C359.227 769.863 341.203 781.06 324.047 790.756C286.045 812.236 252.941 825.987 226.787 831.406C200.036 836.949 184.103 833.142 175.921 824.96C167.739 816.778 163.933 800.845 169.475 774.094C174.894 747.94 188.645 714.836 210.125 676.834C219.821 659.678 231.018 641.654 243.599 622.974C280.222 629.516 320.201 634.69 362.625 638.257C366.191 680.68 371.366 720.659 377.907 757.282ZM405.471 768.699C409.783 790.804 414.611 811.466 419.885 830.454C431.568 872.514 445.253 905.645 459.915 927.971C474.911 950.805 488.87 959.381 500.441 959.381C512.012 959.381 525.97 950.805 540.966 927.971C555.628 905.645 569.313 872.514 580.996 830.454C586.271 811.466 591.098 790.804 595.411 768.699C564.889 747.429 532.96 722.818 500.44 695.342C467.92 722.818 435.992 747.428 405.471 768.699ZM481.23 678.837C453.64 702.019 426.573 723.028 400.56 741.574C395.279 710.066 390.996 676.071 387.879 640.169C405.382 641.35 423.255 642.262 441.436 642.888C454.736 655.302 468.018 667.295 481.23 678.837ZM519.65 678.837C547.241 702.02 574.308 723.029 600.321 741.574C605.602 710.066 609.885 676.071 613.002 640.169C595.499 641.35 577.626 642.262 559.444 642.888C546.145 655.302 532.862 667.295 519.65 678.837ZM521.503 643.769C514.462 650.115 507.438 656.332 500.44 662.416C493.442 656.332 486.418 650.115 479.377 643.769C486.362 643.854 493.384 643.896 500.44 643.896C507.497 643.896 514.519 643.854 521.503 643.769ZM586.895 616.683C596.361 616.191 605.724 615.621 614.975 614.975C615.621 605.724 616.191 596.361 616.683 586.895C611.804 591.894 606.869 596.889 601.879 601.879C596.889 606.869 591.894 611.804 586.895 616.683ZM642.888 559.444C642.262 577.626 641.351 595.499 640.169 613.002C676.071 609.885 710.066 605.602 741.573 600.321C723.028 574.308 702.019 547.242 678.836 519.651C667.295 532.863 655.302 546.145 642.888 559.444ZM695.341 500.441C722.817 532.961 747.428 564.889 768.698 595.411C790.804 591.098 811.466 586.271 830.454 580.996C872.514 569.313 905.645 555.628 927.971 540.966C950.805 525.97 959.381 512.012 959.381 500.441C959.381 488.87 950.805 474.911 927.971 459.915C905.645 445.253 872.514 431.568 830.454 419.885C811.466 414.611 790.804 409.783 768.699 405.471C747.428 435.992 722.818 467.921 695.341 500.441ZM741.574 400.56C723.028 426.573 702.019 453.64 678.836 481.231C667.295 468.019 655.302 454.737 642.888 441.438C642.262 423.256 641.351 405.383 640.169 387.879C676.071 390.996 710.066 395.279 741.574 400.56ZM757.282 377.907C769.863 359.227 781.06 341.203 790.757 324.047C812.236 286.045 825.987 252.941 831.406 226.787C836.949 200.036 833.142 184.102 824.961 175.921C816.779 167.739 800.845 163.932 774.094 169.475C747.94 174.894 714.836 188.645 676.834 210.124C659.678 219.821 641.654 231.018 622.974 243.599C629.516 280.222 634.69 320.201 638.257 362.625C680.68 366.191 720.659 371.366 757.282 377.907ZM595.411 232.182C591.098 210.077 586.271 189.415 580.996 170.427C569.313 128.367 555.628 95.2355 540.966 72.9099C525.97 50.0755 512.012 41.5 500.441 41.5C488.87 41.5 474.911 50.0755 459.915 72.9099C445.253 95.2355 431.568 128.367 419.885 170.427C414.611 189.415 409.783 210.077 405.471 232.183C435.992 253.453 467.92 278.064 500.44 305.54C532.96 278.063 564.889 253.453 595.411 232.182ZM519.65 322.045C547.241 298.862 574.308 277.853 600.321 259.307C605.602 290.815 609.885 324.81 613.002 360.712C595.499 359.531 577.626 358.619 559.444 357.993C546.145 345.579 532.862 333.586 519.65 322.045ZM500.44 338.465C507.438 344.549 514.462 350.766 521.503 357.112C514.519 357.028 507.497 356.985 500.44 356.985C493.384 356.985 486.362 357.028 479.378 357.112C486.418 350.766 493.442 344.549 500.44 338.465ZM662.416 500.441C656.332 507.439 650.115 514.462 643.769 521.503C643.854 514.519 643.896 507.497 643.896 500.44C643.896 493.384 643.854 486.363 643.769 479.379C650.115 486.419 656.332 493.443 662.416 500.441ZM362.625 362.625C366.191 320.201 371.366 280.222 377.907 243.6C359.227 231.018 341.202 219.821 324.047 210.124C286.044 188.645 252.94 174.894 226.786 169.475C200.036 163.932 184.102 167.739 175.92 175.921C167.738 184.102 163.932 200.036 169.474 226.787C174.893 252.941 188.644 286.045 210.124 324.047C219.82 341.203 231.017 359.227 243.599 377.907C280.221 371.366 320.201 366.191 362.625 362.625ZM601.878 399.002C606.868 403.992 611.804 408.988 616.683 413.987C616.191 404.52 615.621 395.157 614.975 385.907C605.724 385.26 596.361 384.69 586.895 384.199C591.893 389.077 596.888 394.012 601.878 399.002ZM638.257 638.257C680.68 634.69 720.659 629.516 757.281 622.974C769.862 641.654 781.059 659.678 790.756 676.834C812.235 714.836 825.987 747.94 831.405 774.094C836.948 800.845 833.142 816.778 824.96 824.96C816.778 833.142 800.844 836.949 774.094 831.406C747.939 825.987 714.835 812.236 676.833 790.756C659.678 781.06 641.654 769.863 622.974 757.282C629.516 720.66 634.69 680.68 638.257 638.257ZM399.001 601.879C403.991 606.869 408.987 611.804 413.985 616.682C404.519 616.191 395.157 615.621 385.907 614.975C385.26 605.724 384.69 596.362 384.199 586.896C389.077 591.894 394.012 596.889 399.001 601.879Z" />
    </mask>
    <path fill-rule="evenodd" clip-rule="evenodd"
        d="M387.879 360.712C390.996 324.81 395.279 290.815 400.56 259.308C426.573 277.853 453.64 298.862 481.23 322.045C468.018 333.586 454.736 345.579 441.437 357.993C423.255 358.619 405.382 359.531 387.879 360.712ZM413.986 384.199C404.52 384.69 395.157 385.26 385.907 385.907C385.26 395.157 384.69 404.52 384.199 413.986C389.077 408.987 394.012 403.992 399.002 399.002C403.992 394.012 408.987 389.077 413.986 384.199ZM382.683 451.663C393.688 440.006 405.027 428.332 416.68 416.68C428.332 405.027 440.006 393.688 451.663 382.682C467.689 382.221 483.962 381.985 500.44 381.985C516.919 381.985 533.192 382.221 549.217 382.682C560.875 393.688 572.548 405.027 584.201 416.68C595.853 428.332 607.193 440.007 618.199 451.664C618.66 467.689 618.896 483.962 618.896 500.44C618.896 516.919 618.66 533.192 618.199 549.217C607.193 560.875 595.854 572.549 584.201 584.201C572.549 595.854 560.875 607.193 549.217 618.199C533.192 618.66 516.919 618.896 500.44 618.896C483.961 618.896 467.688 618.66 451.663 618.199C440.005 607.193 428.331 595.854 416.679 584.201C405.027 572.549 393.688 560.876 382.683 549.218C382.222 533.193 381.985 516.92 381.985 500.44C381.985 483.962 382.222 467.689 382.683 451.663ZM357.993 441.437C358.619 423.255 359.531 405.382 360.712 387.879C324.81 390.996 290.815 395.279 259.307 400.56C277.852 426.573 298.861 453.64 322.044 481.231C333.586 468.019 345.579 454.736 357.993 441.437ZM338.465 500.441C344.549 493.443 350.766 486.419 357.112 479.378C357.028 486.362 356.985 493.384 356.985 500.44C356.985 507.497 357.028 514.52 357.112 521.504C350.766 514.463 344.549 507.439 338.465 500.441ZM305.539 500.441C278.063 467.921 253.452 435.992 232.182 405.471C210.077 409.783 189.415 414.611 170.427 419.885C128.367 431.568 95.2355 445.253 72.9099 459.915C50.0755 474.911 41.5 488.87 41.5 500.441C41.5 512.012 50.0755 525.97 72.9099 540.966C95.2355 555.628 128.367 569.313 170.427 580.996C189.415 586.271 210.077 591.098 232.182 595.411C253.452 564.889 278.063 532.961 305.539 500.441ZM259.307 600.321C277.853 574.308 298.862 547.242 322.044 519.651C333.586 532.863 345.579 546.146 357.993 559.445C358.619 577.627 359.531 595.499 360.712 613.002C324.81 609.885 290.815 605.602 259.307 600.321ZM216.974 617.856C198.137 613.967 180.343 609.697 163.736 605.084C120.482 593.069 84.5732 578.535 59.1863 561.863C34.3084 545.524 16.5 525.032 16.5 500.441C16.5 475.849 34.3084 455.357 59.1863 439.019C84.5732 422.346 120.482 407.812 163.736 395.797C180.342 391.184 198.136 386.914 216.974 383.025C206.403 366.955 196.84 351.353 188.36 336.349C166.271 297.268 151.156 261.599 144.994 231.859C138.956 202.714 140.853 175.632 158.242 158.243C175.631 140.854 202.714 138.956 231.858 144.995C261.598 151.157 297.267 166.271 336.348 188.36C351.353 196.841 366.954 206.404 383.025 216.975C386.914 198.137 391.184 180.343 395.797 163.736C407.812 120.482 422.346 84.5732 439.019 59.1863C455.357 34.3084 475.849 16.5 500.441 16.5C525.032 16.5 545.524 34.3084 561.863 59.1863C578.535 84.5732 593.069 120.482 605.084 163.736C609.697 180.343 613.967 198.136 617.856 216.974C633.927 206.404 649.528 196.841 664.532 188.36C703.613 166.271 739.282 151.157 769.022 144.995C798.167 138.956 825.249 140.854 842.638 158.243C860.027 175.632 861.925 202.714 855.886 231.859C849.724 261.599 834.61 297.268 812.521 336.349C804.04 351.353 794.477 366.955 783.906 383.025C802.744 386.914 820.538 391.184 837.145 395.797C880.398 407.812 916.308 422.346 941.695 439.019C966.573 455.357 984.381 475.849 984.381 500.441C984.381 525.032 966.573 545.524 941.695 561.863C916.308 578.535 880.398 593.069 837.145 605.084C820.538 609.697 802.744 613.967 783.906 617.856C794.476 633.926 804.039 649.528 812.52 664.532C834.609 703.613 849.724 739.282 855.885 769.022C861.924 798.167 860.026 825.249 842.637 842.638C825.249 860.027 798.166 861.925 769.022 855.886C739.281 849.724 703.612 834.61 664.531 812.521C649.527 804.04 633.926 794.477 617.856 783.907C613.967 802.745 609.697 820.539 605.084 837.145C593.069 880.398 578.535 916.308 561.863 941.695C545.524 966.573 525.032 984.381 500.441 984.381C475.849 984.381 455.357 966.573 439.019 941.695C422.346 916.308 407.812 880.398 395.797 837.145C391.184 820.538 386.914 802.744 383.025 783.906C366.955 794.477 351.353 804.04 336.349 812.521C297.268 834.61 261.599 849.724 231.859 855.886C202.715 861.925 175.632 860.027 158.243 842.638C140.854 825.249 138.956 798.167 144.995 769.022C151.157 739.282 166.271 703.613 188.361 664.532C196.841 649.528 206.404 633.926 216.974 617.856ZM377.907 757.282C359.227 769.863 341.203 781.06 324.047 790.756C286.045 812.236 252.941 825.987 226.787 831.406C200.036 836.949 184.103 833.142 175.921 824.96C167.739 816.778 163.933 800.845 169.475 774.094C174.894 747.94 188.645 714.836 210.125 676.834C219.821 659.678 231.018 641.654 243.599 622.974C280.222 629.516 320.201 634.69 362.625 638.257C366.191 680.68 371.366 720.659 377.907 757.282ZM405.471 768.699C409.783 790.804 414.611 811.466 419.885 830.454C431.568 872.514 445.253 905.645 459.915 927.971C474.911 950.805 488.87 959.381 500.441 959.381C512.012 959.381 525.97 950.805 540.966 927.971C555.628 905.645 569.313 872.514 580.996 830.454C586.271 811.466 591.098 790.804 595.411 768.699C564.889 747.429 532.96 722.818 500.44 695.342C467.92 722.818 435.992 747.428 405.471 768.699ZM481.23 678.837C453.64 702.019 426.573 723.028 400.56 741.574C395.279 710.066 390.996 676.071 387.879 640.169C405.382 641.35 423.255 642.262 441.436 642.888C454.736 655.302 468.018 667.295 481.23 678.837ZM519.65 678.837C547.241 702.02 574.308 723.029 600.321 741.574C605.602 710.066 609.885 676.071 613.002 640.169C595.499 641.35 577.626 642.262 559.444 642.888C546.145 655.302 532.862 667.295 519.65 678.837ZM521.503 643.769C514.462 650.115 507.438 656.332 500.44 662.416C493.442 656.332 486.418 650.115 479.377 643.769C486.362 643.854 493.384 643.896 500.44 643.896C507.497 643.896 514.519 643.854 521.503 643.769ZM586.895 616.683C596.361 616.191 605.724 615.621 614.975 614.975C615.621 605.724 616.191 596.361 616.683 586.895C611.804 591.894 606.869 596.889 601.879 601.879C596.889 606.869 591.894 611.804 586.895 616.683ZM642.888 559.444C642.262 577.626 641.351 595.499 640.169 613.002C676.071 609.885 710.066 605.602 741.573 600.321C723.028 574.308 702.019 547.242 678.836 519.651C667.295 532.863 655.302 546.145 642.888 559.444ZM695.341 500.441C722.817 532.961 747.428 564.889 768.698 595.411C790.804 591.098 811.466 586.271 830.454 580.996C872.514 569.313 905.645 555.628 927.971 540.966C950.805 525.97 959.381 512.012 959.381 500.441C959.381 488.87 950.805 474.911 927.971 459.915C905.645 445.253 872.514 431.568 830.454 419.885C811.466 414.611 790.804 409.783 768.699 405.471C747.428 435.992 722.818 467.921 695.341 500.441ZM741.574 400.56C723.028 426.573 702.019 453.64 678.836 481.231C667.295 468.019 655.302 454.737 642.888 441.438C642.262 423.256 641.351 405.383 640.169 387.879C676.071 390.996 710.066 395.279 741.574 400.56ZM757.282 377.907C769.863 359.227 781.06 341.203 790.757 324.047C812.236 286.045 825.987 252.941 831.406 226.787C836.949 200.036 833.142 184.102 824.961 175.921C816.779 167.739 800.845 163.932 774.094 169.475C747.94 174.894 714.836 188.645 676.834 210.124C659.678 219.821 641.654 231.018 622.974 243.599C629.516 280.222 634.69 320.201 638.257 362.625C680.68 366.191 720.659 371.366 757.282 377.907ZM595.411 232.182C591.098 210.077 586.271 189.415 580.996 170.427C569.313 128.367 555.628 95.2355 540.966 72.9099C525.97 50.0755 512.012 41.5 500.441 41.5C488.87 41.5 474.911 50.0755 459.915 72.9099C445.253 95.2355 431.568 128.367 419.885 170.427C414.611 189.415 409.783 210.077 405.471 232.183C435.992 253.453 467.92 278.064 500.44 305.54C532.96 278.063 564.889 253.453 595.411 232.182ZM519.65 322.045C547.241 298.862 574.308 277.853 600.321 259.307C605.602 290.815 609.885 324.81 613.002 360.712C595.499 359.531 577.626 358.619 559.444 357.993C546.145 345.579 532.862 333.586 519.65 322.045ZM500.44 338.465C507.438 344.549 514.462 350.766 521.503 357.112C514.519 357.028 507.497 356.985 500.44 356.985C493.384 356.985 486.362 357.028 479.378 357.112C486.418 350.766 493.442 344.549 500.44 338.465ZM662.416 500.441C656.332 507.439 650.115 514.462 643.769 521.503C643.854 514.519 643.896 507.497 643.896 500.44C643.896 493.384 643.854 486.363 643.769 479.379C650.115 486.419 656.332 493.443 662.416 500.441ZM362.625 362.625C366.191 320.201 371.366 280.222 377.907 243.6C359.227 231.018 341.202 219.821 324.047 210.124C286.044 188.645 252.94 174.894 226.786 169.475C200.036 163.932 184.102 167.739 175.92 175.921C167.738 184.102 163.932 200.036 169.474 226.787C174.893 252.941 188.644 286.045 210.124 324.047C219.82 341.203 231.017 359.227 243.599 377.907C280.221 371.366 320.201 366.191 362.625 362.625ZM601.878 399.002C606.868 403.992 611.804 408.988 616.683 413.987C616.191 404.52 615.621 395.157 614.975 385.907C605.724 385.26 596.361 384.69 586.895 384.199C591.893 389.077 596.888 394.012 601.878 399.002ZM638.257 638.257C680.68 634.69 720.659 629.516 757.281 622.974C769.862 641.654 781.059 659.678 790.756 676.834C812.235 714.836 825.987 747.94 831.405 774.094C836.948 800.845 833.142 816.778 824.96 824.96C816.778 833.142 800.844 836.949 774.094 831.406C747.939 825.987 714.835 812.236 676.833 790.756C659.678 781.06 641.654 769.863 622.974 757.282C629.516 720.66 634.69 680.68 638.257 638.257ZM399.001 601.879C403.991 606.869 408.987 611.804 413.985 616.682C404.519 616.191 395.157 615.621 385.907 614.975C385.26 605.724 384.69 596.362 384.199 586.896C389.077 591.894 394.012 596.889 399.001 601.879Z"
        fill="#1E1E1E" />
    <path
        d="M400.56 259.308L678.041 -129.907L55.505 -573.729L-70.8653 180.3L400.56 259.308ZM387.879 360.712L-88.3295 319.368L-136.587 875.203L420.072 837.627L387.879 360.712ZM481.23 322.045L795.696 682.038L1215.88 314.991L788.726 -43.9201L481.23 322.045ZM441.437 357.993L457.882 835.71L636.763 829.553L767.606 707.418L441.437 357.993ZM413.986 384.199L747.86 726.269L1654.67 -158.819L389.217 -93.1591L413.986 384.199ZM385.907 385.907L352.579 -90.93L-61.9564 -61.9564L-90.93 352.578L385.907 385.907ZM384.199 413.986L-93.1591 389.217L-158.819 1654.67L726.269 747.86L384.199 413.986ZM382.683 451.663L35.1062 123.525L-89.8843 255.92L-95.1198 437.918L382.683 451.663ZM451.663 382.682L437.919 -95.1198L255.92 -89.8843L123.525 35.1061L451.663 382.682ZM549.217 382.682L877.355 35.1061L744.96 -89.8846L562.961 -95.1199L549.217 382.682ZM584.201 416.68L922.198 78.683L922.198 78.6826L584.201 416.68ZM618.199 451.664L1096 437.919L1090.77 255.92L965.775 123.526L618.199 451.664ZM618.199 549.217L965.775 877.356L1090.77 744.961L1096 562.962L618.199 549.217ZM549.217 618.199L562.962 1096L744.961 1090.77L877.356 965.775L549.217 618.199ZM451.663 618.199L123.524 965.775L255.919 1090.77L437.918 1096L451.663 618.199ZM416.679 584.201L754.676 246.204L754.676 246.204L416.679 584.201ZM382.683 549.218L-95.1197 562.964L-89.884 744.963L35.1069 877.357L382.683 549.218ZM357.993 441.437L707.419 767.605L829.553 636.763L835.71 457.881L357.993 441.437ZM360.712 387.879L837.627 420.072L875.203 -136.587L319.368 -88.3296L360.712 387.879ZM259.307 400.56L180.298 -70.8651L-573.73 55.5058L-129.908 678.041L259.307 400.56ZM322.044 481.231L-43.9207 788.727L314.991 1215.88L682.038 795.697L322.044 481.231ZM357.112 479.378L835.077 485.173L850.441 -781.894L2.05563 159.349L357.112 479.378ZM338.465 500.441L-22.2766 186.833L-294.909 500.441L-22.2766 814.049L338.465 500.441ZM357.112 521.504L2.05566 841.533L850.441 1782.78L835.077 515.709L357.112 521.504ZM232.182 405.471L624.346 132.173L446.297 -123.315L140.65 -63.6837L232.182 405.471ZM305.539 500.441L670.664 808.934L931.309 500.441L670.663 191.947L305.539 500.441ZM170.427 419.885L42.4936 -40.6766L42.4934 -40.6766L170.427 419.885ZM72.9099 459.915L335.304 859.456L335.305 859.456L72.9099 459.915ZM72.9099 540.966L-189.485 940.507L-189.484 940.508L72.9099 540.966ZM170.427 580.996L298.361 120.435L298.361 120.435L170.427 580.996ZM232.182 595.411L140.65 1064.57L446.297 1124.2L624.346 868.708L232.182 595.411ZM322.044 519.651L682.038 205.185L314.99 -215.003L-43.9211 212.156L322.044 519.651ZM259.307 600.321L-129.908 322.84L-573.729 945.376L180.299 1071.75L259.307 600.321ZM357.993 559.445L835.71 543L829.553 364.119L707.419 233.276L357.993 559.445ZM360.712 613.002L319.368 1089.21L875.204 1137.47L837.627 580.809L360.712 613.002ZM163.736 605.084L291.67 144.523L291.67 144.523L163.736 605.084ZM216.974 617.856L616.329 880.535L1003.36 292.124L313.618 149.728L216.974 617.856ZM59.1863 561.863L321.581 162.322L321.581 162.322L59.1863 561.863ZM59.1863 439.019L-203.208 39.4775L-203.209 39.4776L59.1863 439.019ZM163.736 395.797L35.8024 -64.7646L35.8023 -64.7645L163.736 395.797ZM216.974 383.025L313.618 851.153L1003.36 708.757L616.328 120.346L216.974 383.025ZM188.36 336.349L604.489 101.145L604.489 101.145L188.36 336.349ZM144.994 231.859L613.053 134.882L613.053 134.881L144.994 231.859ZM158.242 158.243L496.239 496.24L496.239 496.24L158.242 158.243ZM231.858 144.995L134.881 613.054L134.881 613.054L231.858 144.995ZM336.348 188.36L571.551 -227.769L571.551 -227.769L336.348 188.36ZM383.025 216.975L120.346 616.329L708.758 1003.36L851.153 313.619L383.025 216.975ZM395.797 163.736L856.359 291.67L856.359 291.67L395.797 163.736ZM439.019 59.1863L838.56 321.581L838.56 321.581L439.019 59.1863ZM561.863 59.1863L162.322 321.581L162.322 321.581L561.863 59.1863ZM605.084 163.736L144.523 291.67L144.523 291.67L605.084 163.736ZM617.856 216.974L149.728 313.618L292.124 1003.36L880.535 616.329L617.856 216.974ZM664.532 188.36L899.735 604.49L899.736 604.489L664.532 188.36ZM769.022 144.995L865.999 613.054L866 613.054L769.022 144.995ZM842.638 158.243L1180.64 -179.754L1180.64 -179.754L842.638 158.243ZM855.886 231.859L1323.95 328.836L1323.95 328.836L855.886 231.859ZM812.521 336.349L1228.65 571.553L1228.65 571.552L812.521 336.349ZM783.906 383.025L384.552 120.346L-2.48058 708.757L687.263 851.153L783.906 383.025ZM837.145 395.797L965.078 -64.7646L965.078 -64.7647L837.145 395.797ZM941.695 439.019L1204.09 39.4776L1204.09 39.4774L941.695 439.019ZM941.695 561.863L679.3 162.322L679.3 162.322L941.695 561.863ZM837.145 605.084L709.211 144.523L709.21 144.523L837.145 605.084ZM783.906 617.856L687.262 149.728L-2.48117 292.125L384.552 880.535L783.906 617.856ZM812.52 664.532L1228.65 429.329L1228.65 429.329L812.52 664.532ZM855.885 769.022L387.826 865.999L387.826 866L855.885 769.022ZM769.022 855.886L865.999 387.827L865.999 387.827L769.022 855.886ZM664.531 812.521L429.328 1228.65L429.328 1228.65L664.531 812.521ZM617.856 783.907L880.535 384.553L292.125 -2.47977L149.728 687.262L617.856 783.907ZM605.084 837.145L144.523 709.211L144.523 709.211L605.084 837.145ZM561.863 941.695L162.322 679.3L162.322 679.3L561.863 941.695ZM439.019 941.695L838.56 679.3L838.56 679.3L439.019 941.695ZM395.797 837.145L856.359 709.211L856.359 709.211L395.797 837.145ZM383.025 783.906L851.153 687.263L708.758 -2.48023L120.347 384.552L383.025 783.906ZM336.349 812.521L101.146 396.391L101.145 396.392L336.349 812.521ZM231.859 855.886L328.836 1323.95L328.836 1323.95L231.859 855.886ZM158.243 842.638L-179.754 1180.63L-179.754 1180.64L158.243 842.638ZM144.995 769.022L613.054 866L613.054 865.999L144.995 769.022ZM188.361 664.532L604.49 899.735L604.49 899.735L188.361 664.532ZM324.047 790.756L559.251 1206.89L559.251 1206.89L324.047 790.756ZM377.907 757.282L644.928 1153.75L903.218 979.787L848.46 673.23L377.907 757.282ZM226.787 831.406L323.764 1299.47L323.765 1299.47L226.787 831.406ZM169.475 774.094L-298.584 677.117L-298.584 677.117L169.475 774.094ZM210.125 676.834L-206.004 441.63L-206.005 441.63L210.125 676.834ZM243.599 622.974L327.651 152.422L21.0936 97.6634L-152.866 355.954L243.599 622.974ZM362.625 638.257L838.944 598.212L805.111 195.77L402.669 161.937L362.625 638.257ZM419.885 830.454L880.447 702.52L880.447 702.52L419.885 830.454ZM405.471 768.699L132.173 376.535L-123.315 554.584L-63.6838 860.23L405.471 768.699ZM459.915 927.971L60.3739 1190.37L60.374 1190.37L459.915 927.971ZM540.966 927.971L940.507 1190.37L940.507 1190.37L540.966 927.971ZM580.996 830.454L120.435 702.52L120.435 702.52L580.996 830.454ZM595.411 768.699L1064.57 860.231L1124.2 554.584L868.707 376.535L595.411 768.699ZM500.44 695.342L808.933 330.217L500.44 69.5722L191.947 330.218L500.44 695.342ZM400.56 741.574L-70.8652 820.582L55.5055 1574.61L678.041 1130.79L400.56 741.574ZM481.23 678.837L788.725 1044.8L1215.88 685.891L795.696 318.843L481.23 678.837ZM387.879 640.169L420.073 163.254L-136.587 125.678L-88.3295 681.513L387.879 640.169ZM441.436 642.888L767.605 293.463L636.763 171.329L457.882 165.171L441.436 642.888ZM519.65 678.837L205.184 318.843L-215.003 685.89L212.154 1044.8L519.65 678.837ZM600.321 741.574L322.841 1130.79L945.375 1574.61L1071.75 820.583L600.321 741.574ZM613.002 640.169L1089.21 681.513L1137.47 125.679L580.809 163.254L613.002 640.169ZM559.444 642.888L542.999 165.171L364.117 171.329L233.275 293.463L559.444 642.888ZM500.44 662.416L186.832 1023.16L500.44 1295.79L814.048 1023.16L500.44 662.416ZM521.503 643.769L841.532 998.826L1782.77 150.446L515.709 165.804L521.503 643.769ZM479.377 643.769L485.175 165.804L-781.898 150.435L159.348 998.825L479.377 643.769ZM586.895 616.683L253.023 274.611L-653.803 1159.7L611.663 1094.04L586.895 616.683ZM614.975 614.975L648.302 1091.81L1062.84 1062.84L1091.81 648.302L614.975 614.975ZM616.683 586.895L1094.04 611.663L1159.7 -653.791L274.613 253.021L616.683 586.895ZM642.888 559.444L293.463 233.275L171.329 364.117L165.171 542.999L642.888 559.444ZM640.169 613.002L163.254 580.809L125.679 1137.47L681.513 1089.21L640.169 613.002ZM741.573 600.321L820.581 1071.75L1574.61 945.377L1130.79 322.841L741.573 600.321ZM678.836 519.651L1044.8 212.155L685.89 -215.002L318.843 205.185L678.836 519.651ZM768.698 595.411L376.534 868.708L554.583 1124.2L860.229 1064.57L768.698 595.411ZM695.341 500.441L330.217 191.948L69.5713 500.441L330.217 808.934L695.341 500.441ZM830.454 580.996L958.387 1041.56L958.388 1041.56L830.454 580.996ZM927.971 540.966L1190.37 940.508L1190.37 940.507L927.971 540.966ZM927.971 459.915L665.576 859.456L665.576 859.456L927.971 459.915ZM830.454 419.885L702.519 880.446L702.52 880.447L830.454 419.885ZM768.699 405.471L860.231 -63.6838L554.584 -123.315L376.535 132.173L768.699 405.471ZM678.836 481.231L318.843 795.697L685.89 1215.88L1044.8 788.727L678.836 481.231ZM741.574 400.56L1130.79 678.041L1574.61 55.5053L820.582 -70.8653L741.574 400.56ZM642.888 441.438L165.171 457.883L171.329 636.764L293.463 767.606L642.888 441.438ZM640.169 387.879L681.513 -88.3295L125.679 -136.587L163.254 420.072L640.169 387.879ZM757.282 377.907L673.23 848.459L979.788 903.218L1153.75 644.927L757.282 377.907ZM790.757 324.047L374.628 88.8439L374.628 88.8441L790.757 324.047ZM831.406 226.787L363.347 129.809L363.347 129.811L831.406 226.787ZM824.961 175.921L486.963 513.917L486.963 513.918L824.961 175.921ZM774.094 169.475L871.071 637.534L871.072 637.534L774.094 169.475ZM676.834 210.124L912.037 626.253L912.037 626.253L676.834 210.124ZM622.974 243.599L355.954 -152.866L97.6635 21.0933L152.422 327.651L622.974 243.599ZM638.257 362.625L161.937 402.669L195.77 805.111L598.212 838.944L638.257 362.625ZM595.411 232.182L868.708 624.346L1124.2 446.297L1064.57 140.65L595.411 232.182ZM580.996 170.427L120.435 298.36L120.435 298.362L580.996 170.427ZM540.966 72.9099L940.507 -189.485L940.507 -189.485L540.966 72.9099ZM459.915 72.9099L60.374 -189.485L60.374 -189.485L459.915 72.9099ZM419.885 170.427L880.447 298.361L880.447 298.361L419.885 170.427ZM405.471 232.183L-63.684 140.652L-123.315 446.298L132.173 624.347L405.471 232.183ZM500.44 305.54L191.947 670.664L500.44 931.31L808.934 670.664L500.44 305.54ZM600.321 259.307L1071.75 180.299L945.377 -573.728L322.841 -129.908L600.321 259.307ZM519.65 322.045L212.155 -43.9204L-215.003 314.991L205.184 682.038L519.65 322.045ZM613.002 360.712L580.809 837.627L1137.47 875.203L1089.21 319.368L613.002 360.712ZM559.444 357.993L233.275 707.419L364.117 829.552L542.998 835.71L559.444 357.993ZM521.503 357.112L515.707 835.077L1782.77 850.442L841.532 2.05573L521.503 357.112ZM500.44 338.465L814.048 -22.276L500.44 -294.908L186.833 -22.276L500.44 338.465ZM479.378 357.112L159.348 2.05573L-781.893 850.441L485.173 835.077L479.378 357.112ZM643.769 521.503L165.804 515.709L150.446 1782.77L998.826 841.532L643.769 521.503ZM662.416 500.441L1023.16 814.048L1295.79 500.441L1023.16 186.834L662.416 500.441ZM643.769 479.379L998.826 159.35L150.445 -781.889L165.804 485.173L643.769 479.379ZM377.907 243.6L848.459 327.651L903.218 21.0943L644.927 -152.865L377.907 243.6ZM362.625 362.625L402.669 838.944L805.111 805.111L838.944 402.669L362.625 362.625ZM324.047 210.124L88.8431 626.253L88.8434 626.254L324.047 210.124ZM226.786 169.475L323.763 -298.584L323.763 -298.584L226.786 169.475ZM169.474 226.787L-298.585 323.764L-298.585 323.764L169.474 226.787ZM210.124 324.047L-206.005 559.251L-206.005 559.251L210.124 324.047ZM243.599 377.907L-152.866 644.927L21.0931 903.218L327.651 848.46L243.599 377.907ZM616.683 413.987L274.611 747.859L1159.7 1654.68L1094.04 389.219L616.683 413.987ZM601.878 399.002L939.875 61.0049L939.874 61.0039L601.878 399.002ZM614.975 385.907L1091.81 352.577L1062.84 -61.9562L648.303 -90.93L614.975 385.907ZM586.895 384.199L611.664 -93.1591L-653.789 -158.821L253.019 726.268L586.895 384.199ZM757.281 622.974L1153.75 355.955L979.787 97.6635L673.23 152.422L757.281 622.974ZM638.257 638.257L598.212 161.937L195.771 195.77L161.937 598.212L638.257 638.257ZM790.756 676.834L374.627 912.037L374.627 912.037L790.756 676.834ZM831.405 774.094L1299.46 677.117L1299.46 677.116L831.405 774.094ZM774.094 831.406L871.071 363.347L871.071 363.347L774.094 831.406ZM676.833 790.756L912.036 374.627L912.036 374.627L676.833 790.756ZM622.974 757.282L152.422 673.231L97.6634 979.788L355.954 1153.75L622.974 757.282ZM413.985 616.682L389.216 1094.04L1654.68 1159.7L747.859 274.612L413.985 616.682ZM399.001 601.879L61.0042 939.876L61.0053 939.877L399.001 601.879ZM385.907 614.975L-90.9299 648.303L-61.9559 1062.84L352.578 1091.81L385.907 614.975ZM384.199 586.896L726.269 253.022L-158.821 -653.795L-93.159 611.665L384.199 586.896ZM-70.8653 180.3C-78.4125 225.332 -84.2124 271.947 -88.3295 319.368L864.088 402.057C866.205 377.673 868.971 356.299 871.985 338.316L-70.8653 180.3ZM788.726 -43.9201C752.283 -74.5406 715.22 -103.401 678.041 -129.907L123.079 648.523C137.926 659.108 154.996 672.265 173.735 688.01L788.726 -43.9201ZM767.606 707.418C777.118 698.539 786.501 690.071 795.696 682.038L166.764 -37.9483C149.536 -22.8986 132.353 -7.37999 115.268 8.56812L767.606 707.418ZM420.072 837.627C432.255 836.805 444.876 836.158 457.882 835.71L424.992 -119.724C401.634 -118.92 378.51 -117.743 355.686 -116.202L420.072 837.627ZM389.217 -93.1591C376.922 -92.5212 364.706 -91.7777 352.579 -90.93L419.235 862.743C425.608 862.298 432.117 861.901 438.754 861.557L389.217 -93.1591ZM-90.93 352.578C-91.7776 364.706 -92.5211 376.922 -93.1591 389.217L861.557 438.754C861.901 432.117 862.298 425.608 862.743 419.235L-90.93 352.578ZM726.269 747.86C729.798 744.245 733.375 740.623 736.999 736.999L61.0051 61.0049C54.6499 67.3601 48.3572 73.7298 42.1289 80.111L726.269 747.86ZM736.999 736.999C740.624 733.374 744.245 729.797 747.86 726.269L80.1111 42.1288C73.7292 48.3578 67.3596 54.6504 61.0051 61.0049L736.999 736.999ZM78.6828 78.6826C63.7999 93.5655 49.2668 108.526 35.1062 123.525L730.259 779.802C738.11 771.486 746.255 763.098 754.677 754.677L78.6828 78.6826ZM123.525 35.1061C108.526 49.2667 93.5656 63.7997 78.6828 78.6826L754.677 754.677C763.099 746.255 771.486 738.109 779.802 730.259L123.525 35.1061ZM500.44 -96.015C479.393 -96.015 458.538 -95.713 437.919 -95.1198L465.408 860.485C476.84 860.156 488.531 859.985 500.44 859.985V-96.015ZM562.961 -95.1199C542.343 -95.713 521.488 -96.015 500.44 -96.015V859.985C512.35 859.985 524.041 860.156 535.473 860.485L562.961 -95.1199ZM922.198 78.6826C907.315 63.8 892.355 49.267 877.355 35.1061L221.079 730.259C229.394 738.109 237.782 746.255 246.204 754.677L922.198 78.6826ZM965.775 123.526C951.614 108.527 937.081 93.5662 922.198 78.683L246.203 754.676C254.625 763.098 262.771 771.486 270.623 779.803L965.775 123.526ZM1096.9 500.44C1096.9 479.393 1096.59 458.539 1096 437.919L140.397 465.41C140.725 476.84 140.896 488.53 140.896 500.44H1096.9ZM1096 562.962C1096.59 542.343 1096.9 521.488 1096.9 500.44H140.896C140.896 512.351 140.725 524.042 140.397 535.472L1096 562.962ZM922.198 922.198C937.082 907.315 951.615 892.355 965.775 877.356L270.623 221.079C262.772 229.395 254.626 237.783 246.204 246.204L922.198 922.198ZM877.356 965.775C892.355 951.614 907.315 937.082 922.198 922.198L246.204 246.204C237.783 254.626 229.395 262.772 221.079 270.623L877.356 965.775ZM500.44 1096.9C521.488 1096.9 542.343 1096.59 562.962 1096L535.473 140.396C524.042 140.725 512.351 140.896 500.44 140.896V1096.9ZM437.918 1096C458.537 1096.59 479.392 1096.9 500.44 1096.9V140.896C488.531 140.896 476.84 140.725 465.408 140.396L437.918 1096ZM78.6819 922.198C93.5655 937.082 108.526 951.615 123.524 965.775L779.802 270.623C771.485 262.771 763.097 254.625 754.676 246.204L78.6819 922.198ZM35.1069 877.357C49.2661 892.355 63.7988 907.315 78.6824 922.199L754.676 246.204C746.255 237.783 738.11 229.396 730.258 221.08L35.1069 877.357ZM-96.015 500.44C-96.015 521.489 -95.7129 542.344 -95.1197 562.964L860.485 535.473C860.156 524.042 859.985 512.351 859.985 500.44H-96.015ZM-95.1198 437.918C-95.7129 458.538 -96.015 479.393 -96.015 500.44H859.985C859.985 488.53 860.156 476.84 860.485 465.408L-95.1198 437.918ZM835.71 457.881C836.158 444.876 836.805 432.254 837.627 420.072L-116.202 355.686C-117.743 378.51 -118.92 401.634 -119.724 424.992L835.71 457.881ZM319.368 -88.3296C271.947 -84.2125 225.331 -78.4124 180.298 -70.8651L338.315 871.985C356.298 868.971 377.672 866.205 402.057 864.088L319.368 -88.3296ZM-129.908 678.041C-103.402 715.22 -74.5415 752.284 -43.9207 788.727L688.009 173.735C672.264 154.997 659.107 137.926 648.522 123.079L-129.908 678.041ZM682.038 795.697C690.071 786.501 698.539 777.119 707.419 767.605L8.56802 115.268C-7.38026 132.354 -22.8992 149.537 -37.9494 166.766L682.038 795.697ZM2.05563 159.349C-6.18709 168.493 -14.2999 177.658 -22.2766 186.833L699.206 814.049C703.397 809.227 707.719 804.344 712.169 799.407L2.05563 159.349ZM834.985 500.44C834.985 495.314 835.016 490.224 835.077 485.173L-120.852 473.582C-120.961 482.5 -121.015 491.453 -121.015 500.44H834.985ZM835.077 515.709C835.016 510.656 834.985 505.566 834.985 500.44H-121.015C-121.015 509.429 -120.96 518.383 -120.852 527.299L835.077 515.709ZM-22.2766 814.049C-14.2989 823.225 -6.18607 832.389 2.05566 841.533L712.169 201.475C707.718 196.537 703.396 191.653 699.206 186.833L-22.2766 814.049ZM-159.982 678.768C-129.409 722.639 -95.6179 766.287 -59.5853 808.934L670.663 191.947C651.744 169.555 636.313 149.346 624.346 132.173L-159.982 678.768ZM298.361 880.447C303.87 878.916 312.265 876.859 323.714 874.625L140.65 -63.6837C107.888 -57.292 74.9595 -49.6949 42.4936 -40.6766L298.361 880.447ZM335.305 859.456C324.313 866.674 315.275 871.638 309.157 874.764C302.943 877.94 298.414 879.896 296.029 880.877C291.592 882.701 291.945 882.229 298.361 880.446L42.4934 -40.6766C-22.3668 -22.6599 -108.618 7.26545 -189.485 60.3742L335.305 859.456ZM519.5 500.441C519.5 618.259 474.81 708.668 434.001 764.274C395.18 817.172 354.743 846.69 335.304 859.456L-189.484 60.3738C-252.75 101.923 -436.5 240.873 -436.5 500.441H519.5ZM335.305 141.425C354.743 154.191 395.18 183.709 434.001 236.607C474.81 292.213 519.5 382.622 519.5 500.441H-436.5C-436.5 760.008 -252.75 898.959 -189.485 940.507L335.305 141.425ZM298.361 120.435C291.945 118.652 291.591 118.18 296.029 120.004C298.414 120.985 302.943 122.941 309.156 126.117C315.274 129.243 324.313 134.206 335.304 141.425L-189.484 940.508C-108.618 993.616 -22.3669 1023.54 42.4934 1041.56L298.361 120.435ZM323.714 126.256C312.264 124.022 303.869 121.965 298.361 120.435L42.4932 1041.56C74.96 1050.58 107.889 1058.17 140.65 1064.57L323.714 126.256ZM624.346 868.708C636.314 851.535 651.744 831.327 670.664 808.934L-59.5856 191.948C-95.618 234.595 -129.409 278.243 -159.982 322.113L624.346 868.708ZM-43.9211 212.156C-74.5413 248.598 -103.402 285.661 -129.908 322.84L648.522 877.802C659.107 862.955 672.265 845.885 688.01 827.146L-43.9211 212.156ZM-37.9489 834.117C-22.8988 851.346 -7.38001 868.528 8.56805 885.614L707.419 233.276C698.538 223.763 690.07 214.38 682.038 205.185L-37.9489 834.117ZM-119.724 575.89C-118.92 599.248 -117.743 622.371 -116.202 645.196L837.627 580.809C836.805 568.627 836.158 556.006 835.71 543L-119.724 575.89ZM402.057 136.794C377.673 134.677 356.298 131.91 338.315 128.896L180.299 1071.75C225.332 1079.29 271.947 1085.09 319.368 1089.21L402.057 136.794ZM35.802 1065.65C63.8283 1073.43 92.1361 1080.16 120.331 1085.98L313.618 149.728C304.137 147.771 296.857 145.963 291.67 144.523L35.802 1065.65ZM-203.208 961.404C-119.299 1016.51 -30.2866 1047.29 35.8026 1065.65L291.67 144.523C284.486 142.527 283.184 141.754 286.543 143.135C288.397 143.897 292.319 145.583 297.875 148.426C303.362 151.233 311.551 155.734 321.581 162.322L-203.208 961.404ZM-461.5 500.441C-461.5 774.617 -266.253 920 -203.208 961.404L321.581 162.322C338.598 173.497 376.379 200.661 413.024 250.282C452.736 304.055 494.5 389.99 494.5 500.441H-461.5ZM-203.209 39.4776C-266.253 80.8814 -461.5 226.265 -461.5 500.441H494.5C494.5 610.892 452.736 696.827 413.024 750.6C376.379 800.22 338.598 827.384 321.581 838.559L-203.209 39.4776ZM35.8023 -64.7645C-30.2866 -46.4065 -119.299 -15.6289 -203.208 39.4775L321.581 838.56C311.551 845.147 303.362 849.648 297.875 852.456C292.319 855.299 288.397 856.984 286.543 857.746C283.184 859.127 284.486 858.354 291.67 856.359L35.8023 -64.7645ZM120.33 -85.1029C92.135 -79.2821 63.8276 -72.5494 35.8024 -64.7646L291.67 856.359C296.857 854.918 304.137 853.111 313.618 851.153L120.33 -85.1029ZM-227.769 571.552C-213.457 596.874 -198.201 621.652 -182.38 645.704L616.328 120.346C611.008 112.258 607.138 105.832 604.489 101.145L-227.769 571.552ZM-323.065 328.836C-302.699 427.135 -261.52 511.839 -227.769 571.552L604.489 101.145C600.82 94.6548 600.446 93.1873 601.845 96.5386C602.617 98.389 604.198 102.354 606.117 108.293C608.011 114.158 610.619 123.131 613.053 134.882L-323.065 328.836ZM-179.755 -179.754C-373.627 14.1174 -338.367 254.98 -323.065 328.836L613.053 134.881C617.184 154.817 624.691 200.74 615.516 261.738C605.573 327.842 574.34 418.139 496.239 496.24L-179.755 -179.754ZM328.835 -323.065C254.979 -338.367 14.1168 -373.626 -179.755 -179.754L496.239 496.24C418.139 574.341 327.841 605.574 261.738 615.517C200.739 624.692 154.816 617.184 134.881 613.054L328.835 -323.065ZM571.551 -227.769C511.838 -261.52 427.134 -302.698 328.835 -323.065L134.881 613.054C123.13 610.619 114.157 608.012 108.292 606.117C102.353 604.199 98.3882 602.617 96.5378 601.845C93.1866 600.447 94.6541 600.821 101.145 604.489L571.551 -227.769ZM645.704 -182.379C621.652 -198.2 596.874 -213.456 571.551 -227.769L101.145 604.489C105.831 607.138 112.257 611.008 120.346 616.329L645.704 -182.379ZM-64.7645 35.8022C-72.5495 63.8283 -79.2823 92.1362 -85.1031 120.331L851.153 313.619C853.111 304.137 854.918 296.857 856.359 291.67L-64.7645 35.8022ZM39.4775 -203.208C-15.6289 -119.299 -46.4064 -30.2866 -64.7645 35.8023L856.359 291.67C858.354 284.486 859.127 283.184 857.747 286.543C856.984 288.397 855.299 292.319 852.456 297.875C849.648 303.362 845.147 311.551 838.56 321.581L39.4775 -203.208ZM500.441 -461.5C226.265 -461.5 80.8814 -266.253 39.4775 -203.208L838.56 321.581C827.384 338.598 800.22 376.379 750.6 413.024C696.827 452.736 610.892 494.5 500.441 494.5V-461.5ZM961.404 -203.208C920 -266.253 774.617 -461.5 500.441 -461.5V494.5C389.99 494.5 304.055 452.736 250.282 413.024C200.661 376.379 173.497 338.598 162.322 321.581L961.404 -203.208ZM1065.65 35.8026C1047.29 -30.2866 1016.51 -119.299 961.404 -203.208L162.322 321.581C155.734 311.551 151.233 303.362 148.426 297.875C145.583 292.319 143.897 288.397 143.135 286.543C141.754 283.184 142.527 284.486 144.523 291.67L1065.65 35.8026ZM1085.98 120.33C1080.16 92.1359 1073.43 63.8281 1065.65 35.8018L144.523 291.67C145.964 296.857 147.771 304.137 149.728 313.618L1085.98 120.33ZM880.535 616.329C888.624 611.008 895.049 607.138 899.735 604.49L429.329 -227.769C404.007 -213.456 379.23 -198.2 355.178 -182.38L880.535 616.329ZM899.736 604.489C906.226 600.821 907.694 600.447 904.343 601.845C902.492 602.617 898.527 604.199 892.588 606.117C886.723 608.012 877.75 610.619 865.999 613.054L672.045 -323.065C573.746 -302.698 489.042 -261.519 429.329 -227.769L899.736 604.489ZM866 613.054C846.064 617.184 800.141 624.691 739.143 615.517C673.039 605.574 582.742 574.341 504.641 496.24L1180.64 -179.754C986.764 -373.626 745.902 -338.367 672.045 -323.065L866 613.054ZM504.641 496.24C426.54 418.139 395.307 327.842 385.364 261.738C376.19 200.739 383.697 154.817 387.827 134.882L1323.95 328.836C1339.25 254.98 1374.51 14.1177 1180.64 -179.754L504.641 496.24ZM387.827 134.881C390.262 123.131 392.869 114.158 394.764 108.293C396.682 102.354 398.264 98.389 399.036 96.5386C400.434 93.1873 400.06 94.6547 396.392 101.145L1228.65 571.552C1262.4 511.839 1303.58 427.134 1323.95 328.836L387.827 134.881ZM396.392 101.145C393.743 105.832 389.872 112.258 384.552 120.346L1183.26 645.704C1199.08 621.651 1214.34 596.874 1228.65 571.553L396.392 101.145ZM965.078 -64.7647C937.053 -72.5493 908.746 -79.2821 880.55 -85.103L687.263 851.153C696.743 853.11 704.023 854.918 709.211 856.359L965.078 -64.7647ZM1204.09 39.4774C1120.18 -15.6289 1031.17 -46.4065 965.078 -64.7646L709.211 856.359C716.395 858.354 717.697 859.127 714.338 857.746C712.484 856.984 708.562 855.299 703.006 852.456C697.519 849.648 689.33 845.147 679.3 838.56L1204.09 39.4774ZM1462.38 500.441C1462.38 226.265 1267.13 80.8816 1204.09 39.4776L679.3 838.559C662.283 827.384 624.502 800.22 587.857 750.6C548.145 696.827 506.381 610.892 506.381 500.441H1462.38ZM1204.09 961.404C1267.13 920 1462.38 774.617 1462.38 500.441H506.381C506.381 389.99 548.145 304.055 587.857 250.282C624.502 200.661 662.283 173.497 679.3 162.322L1204.09 961.404ZM965.078 1065.65C1031.17 1047.29 1120.18 1016.51 1204.09 961.404L679.3 162.322C689.33 155.734 697.519 151.233 703.006 148.426C708.562 145.583 712.484 143.897 714.338 143.135C717.697 141.754 716.395 142.527 709.211 144.523L965.078 1065.65ZM880.551 1085.98C908.744 1080.16 937.052 1073.43 965.08 1065.65L709.21 144.523C704.024 145.963 696.744 147.77 687.262 149.728L880.551 1085.98ZM1228.65 429.329C1214.34 404.008 1199.08 379.231 1183.26 355.177L384.552 880.535C389.871 888.622 393.741 895.048 396.391 899.736L1228.65 429.329ZM1323.94 672.045C1303.58 573.746 1262.4 489.042 1228.65 429.329L396.391 899.736C400.059 906.226 400.433 907.694 399.035 904.342C398.263 902.492 396.682 898.527 394.763 892.588C392.868 886.723 390.261 877.75 387.826 865.999L1323.94 672.045ZM1180.63 1180.64C1374.51 986.764 1339.25 745.902 1323.94 672.044L387.826 866C383.696 846.064 376.189 800.141 385.363 739.142C395.306 673.038 426.54 582.741 504.64 504.641L1180.63 1180.64ZM672.044 1323.95C745.901 1339.25 986.763 1374.51 1180.63 1180.64L504.64 504.641C582.741 426.54 673.038 395.307 739.142 385.364C800.141 376.189 846.064 383.697 865.999 387.827L672.044 1323.95ZM429.328 1228.65C489.041 1262.4 573.746 1303.58 672.044 1323.95L865.999 387.827C877.749 390.262 886.722 392.869 892.587 394.763C898.526 396.682 902.491 398.263 904.341 399.035C907.693 400.434 906.225 400.06 899.734 396.391L429.328 1228.65ZM355.177 1183.26C379.23 1199.08 404.007 1214.34 429.328 1228.65L899.735 396.392C895.048 393.742 888.622 389.872 880.535 384.553L355.177 1183.26ZM1065.65 965.079C1073.43 937.053 1080.16 908.746 1085.98 880.552L149.728 687.262C147.771 696.743 145.964 704.024 144.523 709.211L1065.65 965.079ZM961.404 1204.09C1016.51 1120.18 1047.29 1031.17 1065.65 965.078L144.523 709.211C142.527 716.395 141.754 717.697 143.135 714.338C143.897 712.484 145.583 708.562 148.426 703.006C151.233 697.519 155.734 689.33 162.322 679.3L961.404 1204.09ZM500.441 1462.38C774.617 1462.38 920 1267.13 961.404 1204.09L162.322 679.3C173.497 662.283 200.661 624.502 250.282 587.857C304.055 548.145 389.99 506.381 500.441 506.381V1462.38ZM39.4774 1204.09C80.8815 1267.13 226.265 1462.38 500.441 1462.38V506.381C610.892 506.381 696.827 548.145 750.6 587.857C800.22 624.502 827.384 662.283 838.56 679.3L39.4774 1204.09ZM-64.7645 965.079C-46.4064 1031.17 -15.6289 1120.18 39.4775 1204.09L838.56 679.3C845.147 689.33 849.648 697.519 852.456 703.006C855.299 708.562 856.984 712.484 857.747 714.338C859.127 717.696 858.354 716.395 856.359 709.211L-64.7645 965.079ZM-85.103 880.55C-79.2822 908.745 -72.5494 937.053 -64.7644 965.079L856.359 709.211C854.918 704.024 853.111 696.744 851.153 687.263L-85.103 880.55ZM120.347 384.552C112.258 389.872 105.832 393.742 101.146 396.391L571.552 1228.65C596.874 1214.34 621.651 1199.08 645.704 1183.26L120.347 384.552ZM101.145 396.392C94.6548 400.06 93.1874 400.434 96.5387 399.035C98.3892 398.263 102.354 396.682 108.293 394.763C114.158 392.869 123.131 390.262 134.882 387.827L328.836 1323.95C427.135 1303.58 511.839 1262.4 571.553 1228.65L101.145 396.392ZM134.882 387.827C154.817 383.697 200.74 376.189 261.738 385.364C327.842 395.307 418.139 426.54 496.24 504.641L-179.754 1180.64C14.1178 1374.51 254.98 1339.25 328.836 1323.95L134.882 387.827ZM496.24 504.641C574.341 582.742 605.574 673.039 615.517 739.143C624.692 800.141 617.184 846.064 613.054 866L-323.064 672.045C-338.367 745.902 -373.626 986.763 -179.754 1180.63L496.24 504.641ZM613.054 865.999C610.619 877.75 608.012 886.723 606.118 892.588C604.199 898.527 602.618 902.492 601.846 904.342C600.447 907.694 600.821 906.226 604.49 899.735L-227.769 429.329C-261.519 489.042 -302.698 573.746 -323.064 672.045L613.054 865.999ZM604.49 899.735C607.139 895.049 611.009 888.623 616.329 880.535L-182.38 355.177C-198.201 379.23 -213.456 404.007 -227.769 429.329L604.49 899.735ZM559.251 1206.89C588.584 1190.31 617.241 1172.39 644.928 1153.75L110.887 360.817C101.213 367.332 93.822 371.814 88.844 374.628L559.251 1206.89ZM323.765 1299.47C418.499 1279.84 500.647 1240.01 559.251 1206.89L88.8441 374.627C83.0471 377.904 82.4631 377.82 86.8912 375.972C89.271 374.979 93.8564 373.16 100.495 371.012C107.032 368.896 116.933 366.015 129.809 363.347L323.765 1299.47ZM-162.076 1162.96C21.4648 1346.5 249.648 1314.82 323.764 1299.47L129.81 363.347C152.582 358.629 202.048 350.908 266.903 360.862C335.079 371.325 430.608 403.654 513.918 486.963L-162.076 1162.96ZM-298.584 677.117C-313.94 751.232 -345.618 979.416 -162.076 1162.96L513.918 486.963C597.228 570.273 629.556 665.802 640.019 733.979C649.973 798.834 642.252 848.299 637.534 871.071L-298.584 677.117ZM-206.005 441.63C-239.128 500.233 -278.956 582.382 -298.584 677.117L637.534 871.071C634.866 883.948 631.985 893.849 629.87 900.386C627.721 907.025 625.902 911.61 624.909 913.99C623.061 918.418 622.977 917.834 626.254 912.037L-206.005 441.63ZM-152.866 355.954C-171.512 383.64 -189.425 412.297 -206.004 441.63L626.254 912.037C629.067 907.059 633.549 899.668 640.064 889.994L-152.866 355.954ZM159.548 1093.53C212.187 1102.93 266.945 1109.9 322.581 1114.58L402.669 161.937C373.457 159.481 348.256 156.102 327.651 152.422L159.548 1093.53ZM-113.695 678.301C-109.018 733.936 -102.047 788.694 -92.6448 841.333L848.46 673.23C844.779 652.625 841.4 627.424 838.944 598.212L-113.695 678.301ZM880.447 702.52C878.916 697.011 876.859 688.616 874.625 677.167L-63.6838 860.23C-57.292 892.992 -49.6949 925.922 -40.6765 958.388L880.447 702.52ZM859.456 665.577C866.675 676.568 871.639 685.607 874.765 691.724C877.94 697.938 879.896 702.467 880.877 704.852C882.701 709.289 882.229 708.936 880.447 702.52L-40.6765 958.388C-22.6598 1023.25 7.26549 1109.5 60.3739 1190.37L859.456 665.577ZM500.441 481.381C618.259 481.381 708.668 526.071 764.274 566.88C817.172 605.701 846.69 646.138 859.456 665.576L60.374 1190.37C101.923 1253.63 240.874 1437.38 500.441 1437.38V481.381ZM141.425 665.576C154.191 646.138 183.709 605.701 236.607 566.88C292.214 526.071 382.623 481.381 500.441 481.381V1437.38C760.008 1437.38 898.958 1253.63 940.507 1190.37L141.425 665.576ZM120.435 702.52C118.652 708.936 118.18 709.29 120.005 704.852C120.985 702.467 122.942 697.938 126.117 691.724C129.243 685.606 134.207 676.568 141.425 665.576L940.507 1190.37C993.616 1109.5 1023.54 1023.25 1041.56 958.387L120.435 702.52ZM126.256 677.168C124.023 688.615 121.965 697.01 120.435 702.52L1041.56 958.387C1050.58 925.922 1058.17 892.994 1064.57 860.231L126.256 677.168ZM191.947 1060.47C234.594 1096.5 278.243 1130.29 322.114 1160.86L868.707 376.535C851.535 364.567 831.326 349.137 808.933 330.217L191.947 1060.47ZM191.947 330.218C169.555 349.137 149.346 364.567 132.173 376.535L678.768 1160.86C722.638 1130.29 766.286 1096.5 808.933 1060.47L191.947 330.218ZM678.041 1130.79C715.221 1104.28 752.283 1075.42 788.725 1044.8L173.735 312.871C154.996 328.617 137.926 341.774 123.079 352.359L678.041 1130.79ZM871.985 662.566C868.971 644.583 866.205 623.208 864.088 598.825L-88.3295 681.513C-84.2124 728.934 -78.4124 775.549 -70.8652 820.582L871.985 662.566ZM355.686 1117.08C378.51 1118.62 401.633 1119.8 424.991 1120.61L457.882 165.171C444.876 164.723 432.254 164.077 420.073 163.254L355.686 1117.08ZM115.267 992.313C132.353 1008.26 149.536 1023.78 166.765 1038.83L795.696 318.843C786.5 310.81 777.118 302.343 767.605 293.463L115.267 992.313ZM212.154 1044.8C248.598 1075.42 285.661 1104.28 322.841 1130.79L877.801 352.359C862.955 341.774 845.884 328.617 827.146 312.872L212.154 1044.8ZM1071.75 820.583C1079.29 775.55 1085.09 728.934 1089.21 681.513L136.794 598.824C134.677 623.209 131.91 644.583 128.896 662.566L1071.75 820.583ZM580.809 163.254C568.627 164.077 556.005 164.723 542.999 165.171L575.889 1120.61C599.247 1119.8 622.37 1118.62 645.195 1117.08L580.809 163.254ZM233.275 293.463C223.763 302.342 214.38 310.81 205.184 318.843L834.116 1038.83C851.344 1023.78 868.527 1008.26 885.613 992.313L233.275 293.463ZM814.048 1023.16C823.224 1015.18 832.387 1007.07 841.532 998.826L201.474 288.712C196.537 293.162 191.653 297.484 186.832 301.675L814.048 1023.16ZM159.348 998.825C168.493 1007.07 177.657 1015.18 186.832 1023.16L814.048 301.675C809.226 297.484 804.343 293.162 799.407 288.712L159.348 998.825ZM500.44 165.896C495.313 165.896 490.223 165.865 485.175 165.804L473.58 1121.73C482.5 1121.84 491.455 1121.9 500.44 1121.9V165.896ZM515.709 165.804C510.656 165.865 505.565 165.896 500.44 165.896V1121.9C509.429 1121.9 518.382 1121.84 527.297 1121.73L515.709 165.804ZM611.663 1094.04C623.959 1093.4 636.175 1092.66 648.302 1091.81L581.647 138.138C575.273 138.583 568.763 138.98 562.127 139.325L611.663 1094.04ZM1091.81 648.302C1092.66 636.175 1093.4 623.959 1094.04 611.663L139.325 562.127C138.98 568.763 138.583 575.273 138.138 581.647L1091.81 648.302ZM274.613 253.021C271.084 256.636 267.506 260.258 263.882 263.882L939.876 939.876C946.231 933.521 952.524 927.151 958.752 920.77L274.613 253.021ZM263.882 263.882C260.256 267.508 256.636 271.084 253.023 274.611L920.768 958.754C927.152 952.523 933.522 946.23 939.876 939.876L263.882 263.882ZM165.171 542.999C164.723 556.005 164.077 568.627 163.254 580.809L1117.08 645.195C1118.62 622.37 1119.8 599.247 1120.61 575.889L165.171 542.999ZM681.513 1089.21C728.934 1085.09 775.549 1079.29 820.581 1071.75L662.566 128.896C644.582 131.91 623.208 134.677 598.825 136.794L681.513 1089.21ZM1130.79 322.841C1104.28 285.661 1075.42 248.598 1044.8 212.155L312.871 827.146C328.616 845.885 341.773 862.955 352.358 877.802L1130.79 322.841ZM318.843 205.185C310.81 214.38 302.342 223.763 293.463 233.275L992.313 885.613C1008.26 868.527 1023.78 851.345 1038.83 834.117L318.843 205.185ZM1160.86 322.113C1130.29 278.243 1096.5 234.595 1060.47 191.948L330.217 808.934C349.136 831.327 364.567 851.535 376.534 868.708L1160.86 322.113ZM702.521 120.435C697.011 121.965 688.615 124.023 677.167 126.256L860.229 1064.57C892.992 1058.17 925.922 1050.58 958.387 1041.56L702.521 120.435ZM665.577 141.425C676.568 134.206 685.607 129.243 691.724 126.117C697.938 122.941 702.467 120.985 704.852 120.005C709.289 118.18 708.936 118.652 702.52 120.435L958.388 1041.56C1023.25 1023.54 1109.5 993.616 1190.37 940.508L665.577 141.425ZM481.381 500.441C481.381 382.622 526.071 292.213 566.88 236.607C605.701 183.709 646.138 154.191 665.576 141.425L1190.37 940.507C1253.63 898.959 1437.38 760.008 1437.38 500.441H481.381ZM665.576 859.456C646.138 846.69 605.701 817.172 566.88 764.274C526.071 708.668 481.381 618.259 481.381 500.441H1437.38C1437.38 240.874 1253.63 101.923 1190.37 60.3739L665.576 859.456ZM702.52 880.447C708.936 882.229 709.29 882.701 704.852 880.877C702.467 879.896 697.938 877.94 691.724 874.764C685.606 871.638 676.568 866.674 665.576 859.456L1190.37 60.3741C1109.5 7.26544 1023.25 -22.6599 958.387 -40.6766L702.52 880.447ZM677.167 874.625C688.616 876.859 697.011 878.916 702.519 880.446L958.388 -40.6764C925.921 -49.695 892.992 -57.2921 860.231 -63.6838L677.167 874.625ZM376.535 132.173C364.567 149.346 349.137 169.555 330.217 191.948L1060.47 808.934C1096.5 766.287 1130.29 722.638 1160.86 678.768L376.535 132.173ZM1044.8 788.727C1075.42 752.284 1104.28 715.22 1130.79 678.041L352.359 123.079C341.774 137.926 328.616 154.996 312.871 173.735L1044.8 788.727ZM1038.83 166.765C1023.78 149.537 1008.26 132.355 992.313 115.269L293.463 767.606C302.342 777.119 310.81 786.501 318.843 795.697L1038.83 166.765ZM1120.61 424.993C1119.8 401.635 1118.62 378.512 1117.08 355.687L163.254 420.072C164.077 432.254 164.723 444.876 165.171 457.883L1120.61 424.993ZM598.825 864.088C623.208 866.205 644.583 868.971 662.566 871.985L820.582 -70.8653C775.549 -78.4124 728.934 -84.2124 681.513 -88.3295L598.825 864.088ZM1153.75 644.927C1172.39 617.241 1190.31 588.585 1206.89 559.25L374.628 88.8441C371.814 93.8211 367.333 101.212 360.817 110.888L1153.75 644.927ZM1206.89 559.251C1240.01 500.648 1279.84 418.499 1299.47 323.763L363.347 129.811C366.015 116.934 368.896 107.032 371.012 100.496C373.16 93.8566 374.979 89.2709 375.972 86.8911C377.82 82.4627 377.904 83.0467 374.628 88.8439L1206.89 559.251ZM1299.47 323.764C1314.82 249.65 1346.5 21.4653 1162.96 -162.077L486.963 513.918C403.653 430.607 371.325 335.078 360.862 266.902C350.908 202.047 358.629 152.581 363.347 129.809L1299.47 323.764ZM1162.96 -162.076C979.416 -345.618 751.231 -313.94 677.117 -298.584L871.072 637.534C848.3 642.252 798.834 649.973 733.979 640.019C665.803 629.556 570.273 597.228 486.963 513.917L1162.96 -162.076ZM677.117 -298.585C582.382 -278.956 500.233 -239.128 441.63 -206.005L912.037 626.253C917.834 622.977 918.418 623.061 913.99 624.909C911.61 625.902 907.025 627.721 900.386 629.869C893.849 631.985 883.948 634.866 871.071 637.534L677.117 -298.585ZM441.63 -206.005C412.296 -189.425 383.64 -171.512 355.954 -152.866L889.994 640.064C899.669 633.548 907.06 629.067 912.037 626.253L441.63 -206.005ZM1114.58 322.581C1109.9 266.945 1102.93 212.187 1093.53 159.548L152.422 327.651C156.102 348.256 159.481 373.457 161.937 402.669L1114.58 322.581ZM841.333 -92.6448C788.694 -102.047 733.936 -109.018 678.301 -113.695L598.212 838.944C627.424 841.4 652.625 844.779 673.23 848.459L841.333 -92.6448ZM1064.57 140.65C1058.17 107.889 1050.58 74.9599 1041.56 42.493L120.435 298.362C121.965 303.869 124.022 312.265 126.256 323.714L1064.57 140.65ZM1041.56 42.4941C1023.54 -22.3666 993.616 -108.618 940.507 -189.485L141.425 335.305C134.207 324.313 129.243 315.274 126.117 309.157C122.942 302.943 120.985 298.414 120.005 296.029C118.18 291.591 118.652 291.945 120.435 298.36L1041.56 42.4941ZM940.507 -189.485C898.959 -252.75 760.008 -436.5 500.441 -436.5V519.5C382.622 519.5 292.214 474.81 236.607 434.001C183.709 395.18 154.191 354.743 141.426 335.305L940.507 -189.485ZM500.441 -436.5C240.874 -436.5 101.923 -252.75 60.374 -189.485L859.456 335.305C846.69 354.743 817.172 395.18 764.274 434.001C708.668 474.81 618.259 519.5 500.441 519.5V-436.5ZM60.374 -189.485C7.26548 -108.618 -22.6598 -22.3669 -40.6765 42.4934L880.447 298.361C882.229 291.945 882.701 291.591 880.877 296.029C879.896 298.414 877.94 302.943 874.765 309.157C871.639 315.274 866.675 324.313 859.456 335.304L60.374 -189.485ZM-40.6765 42.4934C-49.6949 74.9597 -57.2921 107.889 -63.684 140.652L874.625 323.714C876.859 312.265 878.916 303.87 880.447 298.361L-40.6765 42.4934ZM132.173 624.347C149.346 636.314 169.554 651.744 191.947 670.664L808.934 -59.5848C766.287 -95.6171 722.638 -129.408 678.768 -159.981L132.173 624.347ZM808.934 670.664C831.326 651.744 851.535 636.314 868.708 624.346L322.113 -159.982C278.243 -129.409 234.594 -95.6175 191.947 -59.5847L808.934 670.664ZM322.841 -129.908C285.661 -103.402 248.597 -74.5407 212.155 -43.9204L827.145 688.01C845.885 672.265 862.955 659.107 877.802 648.522L322.841 -129.908ZM1089.21 319.368C1085.09 271.947 1079.29 225.332 1071.75 180.299L128.896 338.315C131.91 356.298 134.677 377.673 136.794 402.057L1089.21 319.368ZM542.998 835.71C556.005 836.158 568.627 836.805 580.809 837.627L645.196 -116.202C622.37 -117.743 599.246 -118.92 575.889 -119.724L542.998 835.71ZM205.184 682.038C214.379 690.071 223.762 698.539 233.275 707.419L885.612 8.56774C868.527 -7.37986 851.345 -22.8984 834.116 -37.9483L205.184 682.038ZM841.532 2.05573C832.388 -6.18643 823.224 -14.2991 814.048 -22.276L186.833 699.207C191.653 703.397 196.536 707.719 201.473 712.169L841.532 2.05573ZM500.44 834.985C505.566 834.985 510.656 835.016 515.707 835.077L527.298 -120.852C518.381 -120.961 509.427 -121.015 500.44 -121.015V834.985ZM485.173 835.077C490.224 835.016 495.314 834.985 500.44 834.985V-121.015C491.453 -121.015 482.5 -120.961 473.582 -120.852L485.173 835.077ZM186.833 -22.276C177.657 -14.2995 168.493 -6.1869 159.348 2.05573L799.407 712.169C804.344 707.72 809.227 703.398 814.048 699.207L186.833 -22.276ZM998.826 841.532C1007.07 832.388 1015.18 823.224 1023.16 814.048L301.674 186.834C297.483 191.654 293.162 196.537 288.712 201.474L998.826 841.532ZM165.896 500.44C165.896 505.565 165.865 510.656 165.804 515.709L1121.73 527.297C1121.84 518.382 1121.9 509.429 1121.9 500.44H165.896ZM165.804 485.173C165.865 490.226 165.896 495.316 165.896 500.44H1121.9C1121.9 491.452 1121.84 482.499 1121.73 473.585L165.804 485.173ZM1023.16 186.834C1015.18 177.659 1007.07 168.495 998.826 159.35L288.712 799.408C293.161 804.344 297.483 809.227 301.674 814.048L1023.16 186.834ZM-92.6449 159.549C-102.047 212.188 -109.018 266.946 -113.695 322.581L838.944 402.669C841.4 373.457 844.779 348.256 848.459 327.651L-92.6449 159.549ZM88.8434 626.254C93.8208 629.067 101.212 633.548 110.887 640.065L644.927 -152.865C617.241 -171.512 588.584 -189.424 559.25 -206.005L88.8434 626.254ZM129.809 637.534C116.932 634.866 107.031 631.985 100.495 629.869C93.8557 627.721 89.2701 625.902 86.8903 624.909C82.4621 623.061 83.0461 622.977 88.8431 626.253L559.25 -206.005C500.647 -239.128 418.498 -278.956 323.763 -298.584L129.809 637.534ZM513.917 513.918C430.607 597.228 335.077 629.556 266.901 640.019C202.046 649.973 152.581 642.252 129.809 637.534L323.763 -298.584C249.649 -313.94 21.4645 -345.618 -162.077 -162.077L513.917 513.918ZM637.533 129.81C642.251 152.582 649.972 202.047 640.018 266.902C629.555 335.078 597.227 430.607 513.917 513.918L-162.077 -162.077C-345.619 21.4651 -313.941 249.649 -298.585 323.764L637.533 129.81ZM626.253 88.844C622.976 83.0468 623.06 82.4628 624.908 86.8909C625.901 89.2707 627.72 93.8563 629.869 100.495C631.984 107.032 634.865 116.933 637.533 129.81L-298.585 323.764C-278.957 418.499 -239.129 500.648 -206.005 559.251L626.253 88.844ZM640.064 110.888C633.548 101.213 629.066 93.8212 626.253 88.8439L-206.005 559.251C-189.425 588.585 -171.513 617.241 -152.866 644.927L640.064 110.888ZM322.581 -113.695C266.945 -109.018 212.187 -102.047 159.547 -92.6447L327.651 848.46C348.256 844.779 373.456 841.4 402.669 838.944L322.581 -113.695ZM958.754 80.1139C952.524 73.7303 946.23 67.3597 939.875 61.0049L263.881 736.999C267.507 740.624 271.084 744.245 274.611 747.859L958.754 80.1139ZM138.138 419.237C138.583 425.607 138.98 432.116 139.325 438.754L1094.04 389.219C1093.4 376.925 1092.66 364.707 1091.81 352.577L138.138 419.237ZM562.126 861.557C568.764 861.901 575.274 862.298 581.646 862.743L648.303 -90.93C636.174 -91.7777 623.958 -92.5212 611.664 -93.1591L562.126 861.557ZM939.874 61.0039C933.52 54.6501 927.151 48.3581 920.77 42.1298L253.019 726.268C256.635 729.796 260.257 733.374 263.882 737L939.874 61.0039ZM673.23 152.422C652.624 156.102 627.424 159.481 598.212 161.937L678.301 1114.58C733.936 1109.9 788.694 1102.93 841.333 1093.53L673.23 152.422ZM1206.88 441.63C1190.31 412.297 1172.39 383.641 1153.75 355.955L360.816 889.993C367.332 899.668 371.813 907.059 374.627 912.037L1206.88 441.63ZM1299.46 677.116C1279.84 582.382 1240.01 500.234 1206.88 441.63L374.627 912.037C377.903 917.834 377.819 918.418 375.971 913.99C374.978 911.61 373.159 907.025 371.011 900.386C368.896 893.849 366.014 883.948 363.346 871.072L1299.46 677.116ZM1162.96 1162.96C1346.5 979.416 1314.82 751.233 1299.46 677.117L363.346 871.071C358.628 848.299 350.908 798.834 360.861 733.978C371.325 665.802 403.653 570.273 486.963 486.963L1162.96 1162.96ZM677.116 1299.47C751.232 1314.82 979.416 1346.5 1162.96 1162.96L486.963 486.963C570.272 403.654 665.801 371.325 733.978 360.862C798.833 350.908 848.299 358.629 871.071 363.347L677.116 1299.47ZM441.63 1206.89C500.232 1240.01 582.381 1279.84 677.117 1299.47L871.071 363.347C883.947 366.015 893.848 368.896 900.385 371.012C907.024 373.16 911.61 374.979 913.989 375.972C918.418 377.82 917.833 377.904 912.036 374.627L441.63 1206.89ZM355.954 1153.75C383.64 1172.39 412.297 1190.31 441.63 1206.89L912.036 374.627C907.058 371.814 899.667 367.333 889.994 360.817L355.954 1153.75ZM161.937 598.212C159.481 627.424 156.102 652.625 152.422 673.231L1093.53 841.334C1102.93 788.694 1109.9 733.936 1114.58 678.301L161.937 598.212ZM747.859 274.612C744.245 271.085 740.624 267.507 736.997 263.881L61.0053 939.877C67.3585 946.23 73.7282 952.523 80.1116 958.753L747.859 274.612ZM352.578 1091.81C364.706 1092.66 376.922 1093.4 389.216 1094.04L438.754 139.325C432.116 138.98 425.607 138.583 419.235 138.138L352.578 1091.81ZM-93.159 611.665C-92.5211 623.959 -91.7776 636.175 -90.9299 648.303L862.743 581.646C862.298 575.274 861.901 568.765 861.557 562.127L-93.159 611.665ZM736.998 263.882C733.373 260.257 729.796 256.636 726.269 253.022L42.1287 920.771C48.3582 927.153 54.6506 933.522 61.0042 939.876L736.998 263.882Z"
        fill="#00D1FF" mask="url(#path-1-inside-1_220_2)" />
</svg>